# xmcd CD database file generated by Grip 3.3.1
# 
# Track frame offsets:
#       150
#       31914
#       66512
#       72669
#       92173
# 
# Disc length: 2039 seconds
# 
# Revision: 3
# Processed by: cddbd v1.5.2PL0 Copyright (c) Steve Scherf et al.
# Submitted via: Grip 3.3.1
# 
DISCID=4707f505
DTITLE=Frank Zappa - Orchestral Favorites
DYEAR=1979
DGENRE=Avantgarde
TTITLE0=Strictly Genteel
TTITLE1=Pedro's Dowry
TTITLE2=Naval Aviation In Art?
TTITLE3=Duke of Prunes
TTITLE4=Bogus Pomp
EXTD=
EXTT0=Segue
EXTT1=Segue
EXTT2=Segue
EXTT3=
EXTT4=
PLAYORDER=
